<?xml version="1.0" encoding="UTF-8"?>
<svg width="17px" height="21px" viewBox="0 0 17 21" version="1.1" xmlns="http://www.w3.org/2000/svg" xmlns:xlink="http://www.w3.org/1999/xlink">
    <!-- Generator: Sketch 42 (36781) - http://www.bohemiancoding.com/sketch -->
    <title>Combined Shape</title>
    <desc>Created with Sketch.</desc>
    <defs></defs>
    <g id="UI_production" stroke="none" stroke-width="1" fill="none" fill-rule="evenodd">
        <g id="Desktop_on_hovers" transform="translate(-934.000000, -246.000000)" fill-rule="nonzero" fill="#FBFE34">
            <path d="M944.017598,261.170357 L944.017598,258.670551 C944.017598,257.635926 943.169482,256.78781 942.134857,256.78781 C941.100232,256.78781 940.252116,257.635926 940.252116,258.670551 L940.252116,261.170357 L934,261.170357 C934.983539,257.606798 938.248658,254.989841 942.125,254.989841 C946.001342,254.989841 949.266461,257.606798 950.25,261.170357 L944.017598,261.170357 Z M942.125,253.866111 C939.952833,253.866111 938.191945,252.105222 938.191945,249.933055 C938.191945,247.760889 939.952833,246 942.125,246 C944.297167,246 946.058055,247.760889 946.058055,249.933055 C946.058055,252.105222 944.297167,253.866111 942.125,253.866111 Z M942.435017,266.040418 C942.323112,266.086889 942.228014,266.109419 942.159013,266.109419 C942.090012,266.109419 942.021011,266.109419 941.745007,266.040418 C941.607005,265.971417 941.538004,265.971417 941.469003,265.902416 L938.915967,263.34938 C938.639964,263.073376 938.639964,262.590369 938.915967,262.314365 C939.191971,262.038361 939.674978,262.038361 939.950982,262.314365 L941.331001,263.694385 L941.331001,259.002318 C941.331001,258.588313 941.676006,258.243308 942.090012,258.243308 C942.504018,258.243308 942.849023,258.588313 942.849023,259.002318 L942.849023,263.694385 L944.229042,262.314365 C944.505046,262.038361 944.988053,262.038361 945.264057,262.314365 C945.540061,262.590369 945.540061,263.073376 945.264057,263.34938 L942.711021,265.902416 C942.573019,265.971417 942.546922,265.993946 942.435017,266.040418 Z" id="Combined-Shape"></path>
        </g>
    </g>
</svg>